<?xml version="1.0" encoding="UTF-8"?>
<svg version="1.1" viewBox="0 0 739.7 558.59" xmlns="http://www.w3.org/2000/svg">
<path d="m368.64 1e-5c17.903-2e-3 21.461 0.88944 24.691 6.1875 1.9169 3.1441 2.0175 4.9743 2.0215 36.48l4e-3 33.17 6.75 0.64062c9.8621 0.93574 11.877 1.437 14.703 3.6602 2.3895 1.8796 2.5469 2.5562 2.5469 10.932v8.9277h-49.834c-27.408-1e-5 -50.133-0.3013-50.5-0.66797-0.36666-0.36667-0.66601-4.1311-0.66601-8.3652 0-6.2387 0.38709-8.1898 2.043-10.295 2.1307-2.7087 3.7566-3.1588 15.207-4.2109l6.75-0.62109 2e-3 -32.67c1e-3 -29.1 0.19261-33.052 1.75-36.17 3.0018-6.0089 6.4647-6.996 24.531-6.9981zm46.502 36.006c4.3894 0.0147 21.199 4.6176 32.881 9.002 34.931 13.11 67.282 34.161 95.34 62.043 14.981 14.887 32.627 37.8 31.824 41.322-0.18175 0.79745-5.0905 5.6517-10.91 10.787-5.8196 5.1354-16.395 14.537-23.5 20.893-16.733 14.966-57.91 50.241-76.42 65.467-16.786 13.808-30.879 25.805-50.344 42.854-14.857 13.013-16.038 13.909-17.018 12.93-0.3513-0.35129-0.63867-6.3828-0.63867-13.404v-12.768l5.5586-6.8164c3.0568-3.7494 8.2245-10.269 11.484-14.488l5.9277-7.6699 0.26367-29.221c0.28798-31.728-0.0165-30.129 6.0039-31.395 1.5055-0.31649 3.4626-1.6833 4.3496-3.0371 1.5289-2.3334 1.3444-3.4842-3.541-22.117-5.1716-19.724-5.8707-25.704-3.0469-26.064 7.2342-0.92404 8.765-1.5122 9.7891-3.7598 1.5829-3.474 1.6592-58.49 0.0859-61.943-1.7758-3.8975-5.4531-5.7846-12.252-6.2891-11.48-0.85183-10.623 0.10934-10.623-11.918 0-11.921 0.82988-14.42 4.7852-14.406zm-92.172 0.16406c4.3242-0.011 4.3867 2.8157 4.3867 13.803v11.73l-7.5293 0.63672c-4.1414 0.35008-8.8393 1.3151-10.439 2.1426-6.0238 3.1151-6.0312 3.1553-6.0312 35.547 0 33.351-0.0889 32.922 7.1074 33.883 4.3496 0.58044 4.3962 0.628 4.7012 4.8457 0.19948 2.7593-1.1183 9.2776-3.7383 18.5-6.5272 22.976-6.4599 27.013 0.4668 28.312 6.3626 1.1936 6.4629 1.7085 6.4629 33.012v28.139l10.119 12.389c5.5648 6.8134 10.698 13.289 11.408 14.389 0.82415 1.276 1.4157 6.5251 1.6328 14.5 0.32353 11.882 0.24102 12.512-1.6602 12.74-1.2705 0.15263-5.83-2.9654-12.5-8.5488-5.775-4.8342-19.725-16.474-31-25.867-38.55-32.114-55.514-46.525-82-69.654-37.787-32.998-53-46.639-53-47.525 0-0.42515 2.0819-3.8941 4.625-7.709 16.845-25.269 42.542-50.339 71.375-69.633 23.892-15.988 58.867-31.288 79.713-34.871 2.5438-0.43719 4.459-0.7561 5.9004-0.75977zm172.28 64.012c-1.4146 0.31425-2.7576 1.1027-3.8184 2.4512-1.1399 1.4492-2.0723 3.4532-2.0723 4.4531 0 2.9563 2.0734 6.6325 4.3652 7.7422 2.8345 1.3722 3.3849 1.3727 5.9512 6e-3 3.0922-1.6469 4.6156-3.9226 4.6524-6.9512 0.0646-5.3146-4.8344-8.6439-9.0781-7.7012zm-257.97 0.0996c-1.2982 0.27652-2.5463 0.89373-3.6074 1.8906-2.7838 2.6152-3.1219 8.2738-0.6582 10.996 1.6489 1.822 6.6056 2.4343 9.7988 1.209 2.3758-0.91167 4.5358-5.7007 3.8144-8.459-1.1064-4.231-5.4531-6.4663-9.3477-5.6367zm122.03 11.977c24.406-0.18522 55.886 0.58208 58.047 1.7383 1.4885 0.79662 2.0039 2.0928 2.0039 5.0371 0 3.6868-0.19734 3.9648-2.832 3.9648-1.5583 0-3.1109-0.27694-3.4492-0.61524s-21.788-0.57042-47.666-0.51562l-47.053 0.0996v-2.8613c0-1.5742 0.67525-3.423 1.5-4.1074 0.95194-0.79003 7.7992-1.5997 18.75-2.2168 5.2152-0.29391 12.564-0.4617 20.699-0.52344zm163.13 17.771c-2.554 0.18353-4.9766 0.88905-6.4609 2.0566-8.2198 6.4657-6.9849 18.383 2.4043 23.195 8.1012 4.1519 17.959-2.2363 17.975-11.648 8e-3 -4.6891-3.3634-11.028-6.666-12.533-2.0113-0.91641-4.6979-1.2538-7.252-1.0703zm-258.35 0.0254c-1.8538 0.0161-3.7397 0.55081-4.8965 1.5976-3.2948 2.9818-1.9553 10.176 2.1699 11.65 2.6782 0.95718 4.5124 0.72509 6.7773-0.86133 2.7015-1.8922 3.0943-8.4311 0.65235-10.873-1.0278-1.0278-2.8493-1.5298-4.7031-1.5137zm210.62 0.10546c-3.9286-1.1151-8.3418 1.6525-8.3418 6.6055 0 1.2776 1.1051 3.4274 2.4551 4.7774 3.1146 3.1146 5.9772 3.1146 9.0918 0 2.9986-2.9986 3.1026-5.45 0.38086-8.9102-1.0205-1.2974-2.2764-2.1009-3.5859-2.4727zm-261.75 0.0527c-5.2753-0.43747-5.7187-0.28715-9.0684 3.0625-3.1174 3.1174-3.5234 4.1138-3.5234 8.6719 0 6.111 2.0006 10.443 5.7637 12.484 1.5056 0.81693 4.3113 1.4978 6.2363 1.5117 11.43 0.0826 17.31-14.098 9.207-22.201-2.5005-2.5004-4.0962-3.1545-8.6152-3.5293zm140.77 2.8281c21.873-0.32214 51.764 0.743 53.414 2.3926 0.27351 0.27351 0.87137 4.5481 1.3281 9.498 0.45675 4.95 1.9705 12.4 3.3652 16.555 1.3947 4.1547 2.5351 7.8823 2.5352 8.2832 3e-5 0.40092-18.788 0.72852-41.75 0.72852-22.962-1e-5 -43.63 0.33712-45.93 0.75l-4.1797 0.75 1.0039-3.25c3.8493-12.447 4.9574-17.44 5.6133-25.318l0.74219-8.9316 6-0.64258c4.1663-0.44542 10.566-0.70708 17.857-0.81446zm-114.46 28.961c-3.2659-5e-3 -8.9717 3.7695-10.619 7.0254-2.7044 5.3446-0.60019 12.597 4.4844 15.461 3.8153 2.1489 10.692 1.3706 13.816-1.5644 3.75-3.5229 4.9575-8.7051 3.0781-13.203-1.711-4.095-6.7552-7.7128-10.76-7.7188zm258.1 0.084c-6.0031-0.45862-11.998 4.4204-11.998 12.963 0 3.3859 0.62618 4.7746 3.4004 7.5488 2.8311 2.8311 4.1324 3.4004 7.7773 3.4004 4.9985 0 8.1761-1.8501 10.328-6.0117 1.8942-3.663 1.8983-7.3047 0.0137-10.949-2.3159-4.4785-5.9196-6.676-9.5215-6.9512zm89.174 8.9121c3.0683 0 14.629 21.614 15.492 28.965l0.41406 3.5352-25.289 15.906c-26.174 16.463-37.075 23.439-64.289 41.139-8.8 5.7235-16.716 10.416-17.594 10.43-1.9341 0.0291-4.9062-3.0701-4.9062-5.1172 0-2.2167 3.9688-5.5162 20.367-16.934 8.1765-5.6929 15.52-11.349 16.32-12.57 1.793-2.7364 0.26304-6.3535-2.6875-6.3535-1.0616 0-6.4706 3.1782-12.02 7.0625-11.009 7.7068-14.241 8.5145-14.795 3.7031-0.28155-2.4445 0.81847-3.5528 10.416-10.5 5.9016-4.2718 14.231-10.55 18.512-13.953 4.2805-3.4031 15.074-11.728 23.984-18.5 8.9104-6.7719 20.485-15.575 25.723-19.562 5.2374-3.9875 9.8957-7.25 10.352-7.25zm-436.45 1c0.86814 0 5.6733 3.3135 10.678 7.3633 5.0044 4.0497 20.348 15.83 34.098 26.18 37.579 28.286 43.661 33.319 43.303 35.832-0.56725 3.9758-4.0418 2.9134-14.309-4.3789-7.1097-5.0499-10.692-6.9982-12.482-6.7891-2.85 0.33296-3.748 3.336-1.752 5.8613 0.682 0.86281 9.2278 7.5556 18.99 14.873 18.035 13.518 19.838 15.571 16.551 18.857-0.66 0.66-2.1225 1.1817-3.25 1.1582s-12.626-6.9188-25.551-15.322c-12.925-8.4034-36.325-23.579-52-33.723-24.146-15.626-28.546-18.839-28.803-21.037-0.33055-2.8317 7.7767-22.301 10.984-26.379 1.0802-1.3732 2.6748-2.4961 3.543-2.4961zm200.51 12.092c19.008-0.20898 51.807 0.6989 53.215 1.8672 1.01 0.8382 1.5469 2.9795 1.5469 6.1621v4.8789h-72.1l0.30078-5.709 0.29883-5.7109 4-0.875c1.5979-0.35008 6.4023-0.54362 12.738-0.61328zm121.23 11.908c-8.5902 0-12.755 10.866-6.5449 17.076 5.3558 5.3557 13.815 2.7994 15.709-4.748 1.5029-5.9882-3.2098-12.328-9.1641-12.328zm-207.65 0.0215c-9.1302 0.0612-12.847 11.409-5.7051 17.418 8.2529 6.9443 19.481-2.5934 14.467-12.289-1.9341-3.7401-4.3566-5.1584-8.7617-5.1289zm311.73 0.97852c-1.062 0-8.0988 4.513-24.799 15.904-4.927 3.3607-7.2785 6.4226-6.2324 8.1152 1.34 2.1682 4.8793 0.59946 17.148-7.6035 15.831-10.584 18.173-12.708 16.387-14.859-0.71084-0.85651-1.8384-1.5566-2.5039-1.5566zm-414.78 0.43359c-0.61121 0.053-1.0286 0.39769-1.5215 0.89062-0.83604 0.83604-1.2739 2.1621-0.97265 2.9473s6.9647 5.9956 14.809 11.578c14.857 10.574 14.771 10.527 17.334 9.543 3.8958-1.495 1.3861-4.4476-11.668-13.723-12.573-8.9331-16.147-11.395-17.98-11.236zm210.62 8.207c33.751-0.10579 33.616-0.13376 33.613 7.1445v4.7148h-71.998v-10.379l4.6348-0.69336c2.5489-0.38223 17.736-0.73691 33.75-0.78711zm-15.193 21.029c11.137-0.13877 23.919-0.0992 31.809 0.20117l16.5 0.62891 0.29883 5.668 0.29687 5.6699-6.2969 7.1699c-5.8684 6.6807-10.783 13.133-13.406 17.604-0.99052 1.6879-2.583 1.9134-15 2.123-7.6405 0.12902-14.881-0.18607-16.09-0.69922s-2.9401-2.368-3.8476-4.123c-0.90756-1.755-5.2065-7.2199-9.5527-12.145l-7.9023-8.9551v-5.9375c0-3.8728 0.43475-6.076 1.25-6.334 1.3112-0.41497 10.804-0.73233 21.941-0.87109zm253.38 2.3301c0.649 0 1.6746 0.59555 2.2793 1.3242 1.6989 2.047 5.9165 20.867 7.6152 33.977 1.7702 13.662 2.0445 46.013 0.49805 58.725-1.2041 9.8978-3.9024 24.25-4.8477 25.779-0.36159 0.58507-12.118 2.2361-26.139 3.6719-14.015 1.4352-28.407 3.0108-31.982 3.5-3.575 0.48918-10.775 1.2073-16 1.5957-6.9439 0.51618-10.142 1.2063-11.885 2.5664-4.5991 3.5885-13.115 1.1951-13.115-3.6856 0-3.029 4.417-6.1177 9.7578-6.8262 7.7756-1.0315 54.897-10.463 61.662-12.342 14.088-3.9126 20.029-17.658 11.838-27.393-3.5715-4.2445-7.929-5.8975-15.475-5.8711-9.0152 0.0315-13.752 2.4613-18.127 9.3008-3.8224 5.9753-3.698 5.9068-14.656 8.1875-4.125 0.85852-23.152 5.4113-42.283 10.119-36.298 8.9324-37.717 9.0961-37.717 4.3301 0-5.0123 0.34254-5.1997 79-43.109 25.025-12.061 46.288-22.861 47.25-24s1.75-3.0689 1.75-4.2871c0-2.6776-3.8876-6.5625-6.5664-6.5625-1.0656 0-18.587 7.9131-38.936 17.584-74.143 35.237-118.96 55.764-120.57 55.227-1.8195-0.60651 30.059-20.649 54.568-34.307 7.7-4.2907 31.55-17.799 53-30.021 40.523-23.09 67.047-37.482 69.076-37.482zm-482.37 0.51757c1.5944 9e-3 3.895 1.0976 7.5488 3.2695 3.7082 2.2043 19.792 11.307 35.742 20.229 81.499 45.584 135.76 77.729 132.85 78.699-1.5738 0.52459-29.271-12.097-72.354-32.973-92.276-44.713-87.198-42.544-90.887-38.855-2.6213 2.6213-2.7303 7.2441-0.22461 9.5117 1.593 1.4416 95.06 48.432 117.78 59.213 6.5651 3.1154 7.332 3.775 7.332 6.3106 0 1.5576-0.677 3.3961-1.5059 4.084-1.714 1.4224 0.85464 1.9851-53.869-11.783l-34.873-8.7754-4.127-5.3828c-5.3557-6.9888-9.8668-9.3144-18.068-9.3144-10.871 0-17.819 5.5972-19.168 15.441-1.0139 7.3972 3.36 13.947 11.689 17.506 4.5686 1.9518 48.955 10.932 65.422 13.236 6.9568 0.97336 10.5 3.1898 10.5 6.5664 0 0.70314-0.7875 2.2082-1.75 3.3457-2.8301 3.3446-6.4824 3.666-9.8418 0.86719-2.5849-2.1536-4.5207-2.5591-17.408-3.6465-7.975-0.67291-15.625-1.3775-17-1.5664-1.375-0.18892-5.875-0.62949-10-0.98047-8.7047-0.74065-33.603-3.3016-39.617-4.0742l-4.1191-0.5293-2.0566-10.707c-3.1687-16.499-3.3534-18.855-3.3281-42.111 0.0305-28.049 2.9074-51.156 8.0176-64.373 0.82967-2.1458 1.7181-3.2163 3.3125-3.207zm225.26 26.678c-0.22746 0.22746 0.58692 1.8438 1.8086 3.5918 2.5627 3.6668 3.3471 3.8596 5.9824 1.4746 1.5208-1.3763 4.2392-1.8114 13.08-2.0957 6.1375-0.19738 11.53-0.7101 11.984-1.1387 0.45392-0.42856-6.6605-1.1082-15.809-1.5117-9.1481-0.40352-16.819-0.54778-17.047-0.32031zm118.59 15.805c2.1684 0 4.3256 2.5622 3.6465 4.332-0.49722 1.2957-14.168 10.681-36.486 25.047-5.6565 3.641-10.494 6.6211-10.75 6.6211-2.0484-1e-5 1.8874-3.7053 17.158-16.145 23.419-19.076 24.458-19.855 26.432-19.855zm-204.59 0.54101c0.84566 0.21081 1.8532 0.79876 3.3633 1.8477 6.5137 4.5243 38.168 32.001 38.168 33.131 0 1.3229-3.2406-0.67485-23.771-14.656-22.72-15.472-24.728-17.456-20.146-19.908 0.85721-0.45876 1.541-0.62487 2.3867-0.41406zm90.709 8.3945 11.16 0.28125 11.162 0.28321 0.70117 15c0.38575 8.25 1.131 34.575 1.6562 58.5 0.67861 30.909 1.3189 44.294 2.209 46.246 0.83769 1.8369 2.4425 3.0771 4.8438 3.7441 2.306 0.64056 51.966 0.99991 138.79 1.0039l135.19 6e-3 2.7383 2.3535c2.5319 2.1778 2.6437 2.5817 1.4883 5.3711-0.68704 1.6586-2.4563 3.6357-3.9316 4.3945-2.2607 1.1628-48.276 1.3978-292.68 1.498-159.5 0.0654-290.97-0.0734-292.17-0.30859-4.8429-0.95545-8.6812-6.7459-6.5684-9.9102 2.2328-3.3439 4.1939-3.3979 126.42-3.5312 66.724-0.0728 128.24-0.41029 136.71-0.75 14.993-0.60148 15.446-0.68465 17.287-3.1562 1.7645-2.3686 1.9591-6.0073 2.9102-54.5 0.56051-28.579 1.2581-55.239 1.5508-59.244zm-209.93 31.945c4.093-0.21554 5.2282 0.19794 7.5 2.7266 3.1948 3.556 3.022 8.6405-0.38477 11.32-3.5663 2.8053-7.8737 2.6536-10.91-0.38281-4.645-4.645-2.2284-13.347 3.7949-13.664zm439.41 0.31836c4.088-0.74759 8.0349 1.766 8.9512 6.5098 0.51888 2.6864 0.12432 3.7058-2.4199 6.25-3.5693 3.5693-6.8687 3.8728-10.561 0.96875-2.0324-1.5986-2.6348-2.9544-2.6348-5.9277s0.60241-4.3291 2.6348-5.9277c1.287-1.0123 2.6666-1.6238 4.0293-1.873zm23.219 50.975c1.5184 0.083 2.1172 0.34497 2.1172 0.80274 0 0.66769-2.3238 6.5695-5.1641 13.117l-5.1641 11.906-62.086-0.15235c-34.147-0.083-66.811-0.47469-72.586-0.87109-14.519-0.99659-22-2.0475-22-3.0918 0-0.48663 0.5625-0.8942 1.25-0.9043s5.75-0.64977 11.25-1.4219c5.5-0.77209 16.975-1.8964 25.5-2.498s17.75-1.299 20.5-1.5508c2.75-0.25183 11.75-0.93168 20-1.5098 28.153-1.9727 27.232-1.8127 29.559-5.0801 1.145-1.6081 2.8729-3.3487 3.8418-3.8672 1.6451-0.88043 22.938-3.0443 45.35-4.6094 3.6765-0.25674 6.1144-0.35255 7.6328-0.26953zm-484.6 0.21289c0.30162-0.30162 5.4249-0.0761 11.385 0.5 5.9599 0.57614 15.336 1.3249 20.836 1.6641 15.178 0.93605 21.821 2.1304 23.207 4.1719 3.5369 5.211 3.1568 5.0882 20.793 6.707 25.181 2.3113 27.166 2.4723 50 4.0762 25.832 1.8145 40.839 3.5556 39.781 4.6133-0.43983 0.43984-5.5211 1.2792-11.291 1.8672-5.7699 0.58801-40.521 1.3506-77.227 1.6934l-66.738 0.62305-4.3242-9.4023c-5.8196-12.651-7.0706-15.865-6.4219-16.514zm244.22 73.648c43.34-7e-3 113.05 2.5252 110.37 4.0098-1.445 0.80095-21.659 2.2897-53.371 3.9316-24.972 1.293-67.866 2.412-68.5 1.7871-0.275-0.27094-9.95-0.77146-21.5-1.1113-36.602-1.0771-71.5-3.3317-71.5-4.6211 0-1.4533 66.326-3.9901 104.5-3.9961z"/>
<path transform="scale(1.0083 .99178)" d="m26.784 563.22q-16.229 0-22.472-7.0366-4.3127-4.9937-4.3127-13.96 0-3.8588 0.79445-8.285l4.6532-26.103q5.1072-28.714 36.885-28.714 13.165 0 19.975 5.6746 6.8096 5.5612 6.8096 15.322 0 4.5397-1.3619 9.0794-1.2484 4.4262-2.4968 6.5826l-1.2484 2.2699h-20.088q3.7453-4.3127 3.7453-12.257 0-4.1992-2.1564-6.5826-2.1564-2.4968-6.3556-2.4968-11.463 0-13.619 12.711l-3.9723 22.926q-0.56746 2.9508-0.56746 5.7882 0 7.4905 8.9659 7.4905 10.782 0 12.938-12.144h20.429l-0.56746 3.2913q-4.5397 26.444-35.977 26.444zm84.212-1.5889 0.68095-17.818h-18.953l-5.5612 17.818h-21.677l29.168-81.715h37.453l0.45398 81.715zm-4.6532-61.854-8.9659 28.827h14.868l1.2484-28.827zm84.325-19.861q12.938 0 18.386 5.6746 4.0858 4.3127 4.0858 10.895 0 2.2699-0.45397 4.7667l-1.5889 8.8525q-1.3619 7.377-4.7667 11.917-3.2913 4.5397-7.377 6.4691l10.328 33.14h-22.926l-9.5334-30.53h-7.0366l-4.6532 30.53h-21.791l14.414-81.715zm-7.1501 17.705h-8.512l-2.9508 19.748h7.9445q6.0151 0 8.6255-2.8373 2.6103-2.9508 2.6103-7.7175 0-9.1929-7.7175-9.1929zm66.734 44.149 21.564-61.854h22.131l-30.984 81.715h-36.318l-0.90795-81.715h22.245l-0.34048 61.854zm96.923 19.861h-56.973l14.414-81.715h56.973l-3.1778 17.705h-36.545l-2.6103 15.322h30.189l-3.1778 17.705h-30.189l-2.2699 13.279h36.545zm92.043 0h-51.753l14.414-81.715h20.429l-11.236 64.01h31.324zm49.483 0 0.68096-17.818h-18.953l-5.5612 17.818h-21.677l29.168-81.715h37.453l0.45397 81.715zm-4.6532-61.854-8.966 28.827h14.868l1.2484-28.827zm57.881 38.588q0 7.831 11.236 7.831 11.349 0 11.349-7.0366 0-3.7453-3.8588-6.1286-3.8588-2.3834-9.4199-3.9722-5.4477-1.5889-11.009-3.6318-5.4477-2.1564-9.3064-6.5826-3.8588-4.5397-3.8588-11.236 0-28.487 36.658-28.487 13.392 0 20.202 5.1072 6.9231 4.9937 6.9231 13.96 0 3.2913-0.90794 6.3556-0.79445 2.9508-1.7024 4.1992l-0.90794 1.3619h-20.088q2.4968-2.6103 2.4968-6.5826 0-7.377-9.6469-7.377-12.144 0-12.144 7.7175 0 3.8588 3.8588 6.1286t9.3064 3.6318q5.5612 1.2484 11.122 3.1778 5.5612 1.9294 9.4199 6.4691 3.8588 4.4262 3.8588 11.576 0 14.414-8.6255 21.45-8.6255 6.9231-26.557 6.9231t-24.514-6.3556q-4.8802-4.7667-4.8802-13.165 0-3.1778 0.68096-6.9231l0.34048-1.8159h20.429l-0.22699 1.3619q-0.22698 1.1349-0.22698 2.0429zm108.84 23.266h-56.973l14.414-81.715h56.973l-3.1778 17.705h-36.545l-2.6103 15.322h30.189l-3.1778 17.705h-30.189l-2.2699 13.279h36.545zm60.378-81.715q12.938 0 18.386 5.6746 4.0858 4.3127 4.0858 10.895 0 2.2699-0.45397 4.7667l-1.5889 8.8525q-1.3619 7.377-4.7667 11.917-3.2913 4.5397-7.377 6.4691l10.328 33.14h-22.926l-9.5334-30.53h-7.0366l-4.6532 30.53h-21.791l14.414-81.715zm-7.1501 17.705h-8.512l-2.9508 19.748h7.9445q6.0151 0 8.6255-2.8373 2.6103-2.9508 2.6103-7.7175 0-9.1929-7.7175-9.1929z" stroke-width="19.615" aria-label="CARVE LASER"/>
</svg>
