<?xml version="1.0" encoding="UTF-8" standalone="no"?>
<!-- Created with Inkscape (http://www.inkscape.org/) -->

<svg
   width="15mm"
   height="12mm"
   viewBox="0 0 15 12"
   version="1.1"
   id="svg1"
   inkscape:version="1.3.2 (1:1.3.2+202311252150+091e20ef0f)"
   sodipodi:docname="site-logo.svg"
   xmlns:inkscape="http://www.inkscape.org/namespaces/inkscape"
   xmlns:sodipodi="http://sodipodi.sourceforge.net/DTD/sodipodi-0.dtd"
   xmlns="http://www.w3.org/2000/svg"
   xmlns:svg="http://www.w3.org/2000/svg">
  <sodipodi:namedview
     id="namedview1"
     pagecolor="#ffffff"
     bordercolor="#000000"
     borderopacity="0.25"
     inkscape:showpageshadow="2"
     inkscape:pageopacity="0.0"
     inkscape:pagecheckerboard="0"
     inkscape:deskcolor="#d1d1d1"
     inkscape:document-units="mm"
     inkscape:zoom="18.958318"
     inkscape:cx="25.582438"
     inkscape:cy="33.679147"
     inkscape:window-width="3840"
     inkscape:window-height="2123"
     inkscape:window-x="2160"
     inkscape:window-y="811"
     inkscape:window-maximized="1"
     inkscape:current-layer="layer1" />
  <defs
     id="defs1" />
  <g
     inkscape:label="Layer 1"
     inkscape:groupmode="layer"
     id="layer1">
    <g
       id="g1"
       transform="translate(-0.07191318,-1.2999506)">
      <path
         d="m 7.5352151,2.0674076 c 0.3465036,-3.88e-5 0.4153667,0.017209 0.4778818,0.119756 0.037107,0.060854 0.039045,0.096274 0.039136,0.7060542 l 7.75e-5,0.6419907 0.1306512,0.0124 c 0.190871,0.01812 0.2298748,0.027812 0.2845696,0.070842 0.046247,0.036378 0.049302,0.049475 0.049302,0.2115832 V 4.0028243 H 7.5523193 c -0.5304705,-4e-7 -0.9703035,-0.00583 -0.9774059,-0.012924 -0.00707,-0.00709 -0.012992,-0.079956 -0.012992,-0.1619052 0,-0.1207475 0.00753,-0.1585091 0.039547,-0.1992544 0.041234,-0.052427 0.072711,-0.061136 0.2943229,-0.081499 l 0.1306511,-0.012012 3.87e-5,-0.6323134 c 1.75e-5,-0.5632171 0.00365,-0.6397064 0.03387,-0.7000539 0.0581,-0.1163004 0.1251124,-0.1354035 0.4747865,-0.1354445 z M 8.43524,2.764288 c 0.084951,2.84e-4 0.4102974,0.089373 0.6363978,0.1742297 0.676074,0.2537383 1.3022122,0.661171 1.8452632,1.2008148 0.28995,0.2881316 0.631482,0.7316024 0.615939,0.7997693 -0.0035,0.015431 -0.09853,0.109385 -0.211156,0.2087774 -0.112645,0.099392 -0.317317,0.2813571 -0.454831,0.4043749 C 10.542993,5.8419143 9.7460296,6.5246465 9.387776,6.819339 9.0628919,7.0865867 8.7901269,7.3187836 8.4133904,7.6487592 8.1258417,7.9006203 8.1029823,7.9179619 8.084016,7.8990136 8.077178,7.8922211 8.0717076,7.7754762 8.0717076,7.6395851 V 7.3924664 L 8.1792919,7.260539 C 8.2384405,7.1879719 8.3384802,7.0617861 8.4015492,6.98013 l 0.1147187,-0.1484481 0.00502,-0.5655597 c 0.00547,-0.6140814 -3.146e-4,-0.5831334 0.1162002,-0.6076364 0.029152,-0.00613 0.067012,-0.032581 0.084175,-0.058782 0.029586,-0.04516 0.02603,-0.067434 -0.06854,-0.4280647 -0.1000897,-0.381749 -0.1136288,-0.4974894 -0.05897,-0.5044569 0.1400191,-0.017893 0.1696504,-0.029269 0.1894577,-0.07277 0.030634,-0.067238 0.032116,-1.1320481 0.00169,-1.1988795 -0.034372,-0.075434 -0.1055329,-0.1119583 -0.23713,-0.121723 -0.2221889,-0.016479 -0.2055954,0.00212 -0.2055954,-0.2306676 0,-0.2307257 0.015955,-0.2790926 0.092609,-0.2788218 z m -1.7839486,0.00317 c 0.083697,-2.132e-4 0.084905,0.054496 0.084905,0.267151 v 0.2270279 l -0.1457175,0.012331 c -0.080164,0.00677 -0.1710864,0.025453 -0.2020397,0.04147 -0.1165876,0.06029 -0.1167244,0.06107 -0.1167244,0.6879965 0,0.6454938 -0.00172,0.6371909 0.1375575,0.6557905 0.084176,0.011237 0.085087,0.012149 0.090991,0.093785 0.00388,0.053405 -0.021654,0.1795632 -0.072346,0.3580596 -0.1263204,0.4446901 -0.1250212,0.5228247 0.00912,0.5479661 0.1231522,0.023101 0.1250896,0.033068 0.1250896,0.6389328 v 0.544618 L 6.7579668,7.08237 c 0.1076983,0.1318705 0.2070542,0.2572027 0.2207986,0.2784927 0.015955,0.024696 0.027398,0.1262908 0.031592,0.2806413 0.00615,0.2299708 0.00456,0.2421643 -0.032138,0.246577 C 6.9536216,7.891043 6.8653888,7.8306864 6.736283,7.7226211 6.6244136,7.6290569 6.3544271,7.4037749 6.1362041,7.2219775 5.3900864,6.6004253 5.0617559,6.3215065 4.5491305,5.873855 3.8177805,5.235193 3.5233396,4.9711776 3.5233396,4.9540297 c 0,-0.00823 0.040294,-0.075369 0.089513,-0.1492049 C 3.9388808,4.3157544 4.4362351,3.8305355 4.9942855,3.4571087 5.4567043,3.1476679 6.1336308,2.8515433 6.5370925,2.7821958 c 0.049233,-0.00845 0.086296,-0.014633 0.1141944,-0.014702 z m 3.334405,1.2389241 c -0.027375,0.00609 -0.053382,0.021335 -0.073896,0.047442 -0.02211,0.02805 -0.040116,0.066834 -0.040116,0.086189 0,0.057218 0.040139,0.1283695 0.084495,0.1498476 0.054863,0.026559 0.065508,0.026568 0.1151746,1.161e-4 0.05986,-0.031874 0.08933,-0.07592 0.09006,-0.1345374 0.0013,-0.1028605 -0.09357,-0.1672971 -0.1757146,-0.1490555 z m -4.9928971,0.00193 c -0.025118,0.00535 -0.049279,0.0173 -0.069816,0.036592 -0.053883,0.050614 -0.060424,0.1601365 -0.012764,0.2128232 0.031911,0.035263 0.1278476,0.047116 0.1896402,0.0234 0.045974,-0.017644 0.0878,-0.1103418 0.073828,-0.163726 C 5.1522612,4.0355119 5.068154,3.9922479 4.9927538,4.0083058 Z m 2.3618383,0.2318093 c 0.4723659,-0.00358 1.0816463,0.011259 1.1234721,0.033645 0.02881,0.015408 0.038794,0.040505 0.038794,0.097491 0,0.071357 -0.00388,0.076738 -0.054818,0.076738 -0.030156,0 -0.06022,-0.00535 -0.066762,-0.011898 -0.00661,-0.00654 -0.4216964,-0.011032 -0.9225537,-0.00998 l -0.91069,0.00193 v -0.055378 c 0,-0.030468 0.012992,-0.066251 0.029039,-0.079496 0.018463,-0.015294 0.1509598,-0.030962 0.3628987,-0.042904 0.100929,-0.00567 0.2431702,-0.00893 0.4006194,-0.010117 z m 3.1573084,0.34395 c -0.04943,0.00356 -0.09633,0.017209 -0.125044,0.039804 -0.159098,0.1251397 -0.135188,0.3557948 0.04655,0.4489291 0.156794,0.080358 0.347588,-0.043283 0.347896,-0.2254415 1.5e-4,-0.090756 -0.0651,-0.2134432 -0.12901,-0.2425708 -0.03893,-0.017734 -0.09092,-0.024266 -0.140362,-0.020719 z m -5.0002506,4.908e-4 c -0.035876,3.141e-4 -0.072392,0.010667 -0.094774,0.030922 -0.063776,0.057713 -0.037837,0.1969522 0.041985,0.2254803 0.051832,0.018531 0.087344,0.014041 0.1311753,-0.016662 0.052288,-0.036622 0.059878,-0.1631795 0.012536,-0.2104413 -0.01983,-0.019899 -0.05516,-0.029608 -0.091036,-0.029296 z m 4.0764565,0.00204 C 9.5121139,4.5650162 9.426707,4.6185852 9.426707,4.7144498 c 0,0.024726 0.021426,0.066336 0.047524,0.092466 0.060288,0.060282 0.115676,0.060282 0.1759642,0 0.058032,-0.058036 0.060037,-0.1054828 0.00729,-0.172454 -0.01983,-0.025111 -0.04406,-0.040663 -0.069406,-0.047859 z m -5.0660542,0.00103 c -0.1021026,-0.00848 -0.1106842,-0.00556 -0.1755152,0.059269 -0.060336,0.060336 -0.068193,0.079622 -0.068193,0.1678406 0,0.1182767 0.038722,0.2021194 0.1115527,0.2416223 0.029139,0.015818 0.083444,0.028988 0.1206996,0.029257 0.2212317,0.0016 0.3350269,-0.2728608 0.1781979,-0.4296907 -0.04839,-0.048395 -0.079275,-0.061054 -0.1667329,-0.068307 z m 2.7245407,0.054736 c 0.423342,-0.00624 1.0018699,0.014382 1.0338033,0.046307 0.00524,0.00528 0.016867,0.088025 0.025711,0.1838301 0.00889,0.095805 0.038133,0.2399965 0.065143,0.3204149 0.026987,0.080412 0.049074,0.1525577 0.049074,0.1603165 2.3e-6,0.00775 -0.3636328,0.014109 -0.8080517,0.014109 -0.444419,-2e-7 -0.8444389,0.00652 -0.8889542,0.014519 l -0.080894,0.014519 0.019375,-0.062903 C 6.7363548,5.09257 6.7577808,4.9959326 6.7704764,4.8434573 l 0.01436,-0.1728666 0.1161318,-0.012445 c 0.080643,-0.00862 0.2045014,-0.013675 0.3456146,-0.015772 z M 5.0313155,5.2028856 c -0.063206,-9.69e-5 -0.1736393,0.072957 -0.2055272,0.1359733 -0.052333,0.1034429 -0.011624,0.2438094 0.086797,0.299241 0.07385,0.041591 0.2069402,0.026527 0.2674018,-0.030279 0.072574,-0.068184 0.09596,-0.1684834 0.059582,-0.2555383 C 5.20645,5.2730262 5.1088263,5.2030052 5.0313064,5.202889 Z m 4.9954115,0.00163 c -0.1161778,-0.00886 -0.2322161,0.085554 -0.2322161,0.2508932 0,0.065533 0.01208,0.092411 0.065804,0.1461027 0.054795,0.054795 0.079982,0.065814 0.1505271,0.065814 0.09673,0 0.158254,-0.035808 0.199897,-0.116353 0.03665,-0.0709 0.03674,-0.1413837 2.6e-4,-0.2119175 -0.04481,-0.086682 -0.114582,-0.1292115 -0.184284,-0.1345383 z m 1.725923,0.1724923 c 0.05938,0 0.283138,0.4183293 0.299842,0.5606048 l 0.008,0.068423 -0.489459,0.3078534 C 11.06447,6.6325194 10.853486,6.7675368 10.32677,7.1101127 10.156458,7.220888 10.00324,7.3117101 9.9862475,7.3119814 c -0.037426,5.6e-4 -0.094957,-0.05942 -0.094957,-0.099041 0,-0.042904 0.076813,-0.1067637 0.3941935,-0.3277499 0.158254,-0.1101828 0.300381,-0.2196544 0.315865,-0.2432869 0.03469,-0.052962 0.005,-0.1229698 -0.05201,-0.1229698 -0.02052,0 -0.125226,0.061513 -0.232643,0.1366914 -0.213071,0.1491613 -0.275627,0.1647952 -0.286349,0.071671 -0.0055,-0.047312 0.01595,-0.068763 0.201607,-0.2032227 0.114217,-0.082678 0.275434,-0.2041914 0.35829,-0.2700541 0.08285,-0.065866 0.291751,-0.2269892 0.464201,-0.3580596 0.172454,-0.1310682 0.396478,-0.3014471 0.497858,-0.3786138 0.101365,-0.077176 0.191532,-0.1403201 0.200353,-0.1403201 z m -8.447297,0.019351 c 0.016798,0 0.1098044,0.064131 0.2066667,0.1425128 0.096858,0.078379 0.3938266,0.3063828 0.6599519,0.5067024 0.7273229,0.547463 0.8450388,0.6448747 0.8381096,0.6935126 -0.010941,0.07695 -0.078227,0.056388 -0.276945,-0.084753 C 4.5955331,6.5565907 4.5261959,6.5188839 4.491554,6.5229297 4.436394,6.5293797 4.419012,6.5874957 4.457644,6.636372 4.470841,6.65308 4.6362454,6.7826069 4.8251862,6.9242322 5.174245,7.1858672 5.2091414,7.2256021 5.1455231,7.2892014 5.1327581,7.3019664 5.1044501,7.3120724 5.0826131,7.3116074 5.0608009,7.3111808 4.8382541,7.1777214 4.5880957,7.0150813 4.337938,6.852437 3.8850413,6.5587199 3.5816585,6.3623874 3.1143234,6.0599531 3.0291633,5.9977669 3.0241891,5.9552255 3.0177842,5.900419 3.1747046,5.5235994 3.2367799,5.4446716 c 0.020901,-0.026577 0.05177,-0.04831 0.068573,-0.04831 z m 3.8807829,0.2340354 c 0.3678905,-0.00406 1.0027019,0.013516 1.0299512,0.036138 0.019602,0.016229 0.029951,0.057667 0.029951,0.1192637 V 5.880224 H 6.8505732 l 0.00593,-0.110495 0.0057,-0.1105315 0.077429,-0.016935 c 0.030931,-0.00677 0.1239043,-0.01053 0.2465391,-0.011875 z m 2.3463525,0.2304741 c -0.1662543,0 -0.2468673,0.2103068 -0.1266851,0.3304986 C 9.5094671,6.295024 9.6731868,6.245549 9.7098452,6.099471 9.7389295,5.9835687 9.6477107,5.8608649 9.5324679,5.8608649 Z M 5.5135143,5.8612749 C 5.336798,5.8624636 5.2648669,6.0820917 5.4031037,6.1983927 5.562839,6.3327956 5.7801502,6.1481996 5.6831055,5.9605445 5.6456789,5.8881576 5.5987931,5.8607053 5.5135234,5.8612775 Z m 6.0333977,0.018941 c -0.02051,0 -0.15675,0.087348 -0.479975,0.3078152 -0.09537,0.065045 -0.140863,0.1243054 -0.120622,0.1570661 0.02594,0.041965 0.09443,0.011602 0.331891,-0.1471625 0.306403,-0.2048478 0.351732,-0.2459578 0.317164,-0.2875895 -0.01368,-0.016571 -0.03558,-0.030126 -0.04845,-0.030126 z m -8.0278849,0.00838 c -0.01183,0.00103 -0.019899,0.0077 -0.029449,0.017232 -0.016183,0.016183 -0.024656,0.041847 -0.018827,0.057043 0.00583,0.015203 0.1347995,0.1160429 0.2866217,0.2240876 0.2875509,0.2046572 0.2858863,0.2037477 0.335492,0.184704 C 4.1682673,6.3427286 4.1196927,6.2855809 3.8670358,6.10606 3.6236939,5.9331864 3.5545206,5.8855371 3.5190435,5.8886142 Z m 4.076458,0.1588419 c 0.6532352,-0.00205 0.6506231,-0.0026 0.6505637,0.1382777 v 0.091253 H 6.8525584 V 6.0760949 l 0.089714,-0.013426 c 0.049324,-0.0074 0.3432737,-0.014269 0.6532169,-0.015226 z M 7.3014312,6.4544483 c 0.2155561,-0.00269 0.4629409,-0.00192 0.615649,0.0039 l 0.3193499,0.012171 0.0057,0.1097018 0.0057,0.1097383 -0.1218758,0.1387701 C 8.0123721,6.9580342 7.9172557,7.0829159 7.8664837,7.1694501 7.8473373,7.2021174 7.816498,7.2064824 7.5761656,7.2105396 7.4282827,7.2130468 7.2881496,7.2069383 7.26475,7.1970004 7.2413413,7.1870625 7.2078352,7.1511699 7.1902843,7.1172011 7.1727335,7.0832346 7.0895152,6.9774622 7.0053851,6.8821398 L 6.8524422,6.7088151 V 6.5938982 c 0,-0.074956 0.00843,-0.1175997 0.024183,-0.1225914 0.025369,-0.00803 0.2091056,-0.014177 0.4246595,-0.016867 z m 4.9040578,0.045106 c 0.01253,0 0.03241,0.011534 0.04411,0.025628 0.03289,0.039619 0.114514,0.4038715 0.147381,0.6576098 0.03426,0.264422 0.03957,0.8905613 0.0096,1.1365969 -0.02329,0.1915685 -0.07553,0.4693477 -0.09382,0.4989403 -0.007,0.011397 -0.234538,0.043285 -0.505911,0.071069 -0.271254,0.027784 -0.549804,0.058283 -0.618997,0.067741 -0.0692,0.00958 -0.208536,0.023363 -0.309672,0.030885 -0.134389,0.010025 -0.196296,0.02334 -0.23003,0.049667 -0.08901,0.069451 -0.253835,0.023135 -0.253835,-0.071343 0,-0.058625 0.0855,-0.1184112 0.188865,-0.1321099 0.150504,-0.020058 1.062506,-0.2025184 1.193441,-0.2388758 0.272667,-0.075726 0.387652,-0.341762 0.22912,-0.5301787 -0.06914,-0.082152 -0.153468,-0.1141442 -0.299513,-0.1136336 -0.174482,6.152e-4 -0.266164,0.047638 -0.350839,0.1800122 -0.07398,0.1156509 -0.07158,0.1143244 -0.28366,0.1584658 -0.07985,0.016617 -0.448098,0.1047329 -0.81837,0.1958491 -0.7025301,0.1728826 -0.7299961,0.1760508 -0.7299961,0.083806 0,-0.097011 0.00661,-0.1006373 1.5290091,-0.8343557 0.484349,-0.2334351 0.895887,-0.4424644 0.914504,-0.4645091 0.01869,-0.022042 0.03387,-0.059397 0.03387,-0.082974 0,-0.051823 -0.07524,-0.1270133 -0.127095,-0.1270133 -0.02051,0 -0.359745,0.1531549 -0.753589,0.3403306 C 9.6850279,8.0831594 8.8176156,8.4804503 8.786455,8.470057 8.7512394,8.4583184 9.3682331,8.070405 9.8425934,7.8060603 9.9916159,7.7230153 10.45323,7.4615684 10.868385,7.225017 11.65269,6.7781203 12.16605,6.4995695 12.20532,6.4995695 Z M 2.86943,6.5095593 c 0.030859,1.777e-4 0.075386,0.021243 0.1461027,0.063278 0.071772,0.042662 0.3830656,0.2188429 0.6917708,0.3915233 1.5773776,0.8822839 2.627576,1.5044365 2.5712539,1.5232102 C 6.2481055,8.4977137 5.7120302,8.2534385 4.8781788,7.8493929 3.0922167,6.9839923 3.190499,7.0259723 3.1191,7.0973714 3.068366,7.1481054 3.066256,7.2375775 3.11475,7.2814659 c 0.030833,0.027901 1.8398446,0.9373802 2.2795818,1.1460415 0.1270726,0.060295 0.141911,0.073064 0.141911,0.1221401 0,0.030146 -0.012992,0.065729 -0.029152,0.079042 -0.033169,0.027535 0.016634,0.038429 -1.0426166,-0.228052 L 3.7895319,8.230792 3.7096555,8.12661 C 3.6059985,7.9913455 3.5186889,7.9463334 3.3599575,7.9463334 c -0.2104025,0 -0.3448789,0.1083319 -0.3709881,0.2988532 -0.019626,0.1431693 0.065031,0.2699382 0.2262348,0.3388209 0.088424,0.037768 0.9475027,0.2115901 1.2662143,0.2561781 0.1346468,0.018919 0.2032227,0.061724 0.2032227,0.1270954 0,0.013675 -0.015272,0.042738 -0.033871,0.064756 C 4.5959982,9.09677 4.5253162,9.102992 4.460287,9.048904 4.4102579,9.0072148 4.3727903,8.9993739 4.1233626,8.9783357 3.969011,8.9653435 3.8209477,8.9516676 3.7943351,8.9480206 3.7677217,8.9443738 3.6806263,8.9359402 3.6007905,8.9291022 3.4323139,8.9147425 2.9504191,8.8652126 2.8340209,8.8502602 L 2.7542968,8.8400032 2.7144929,8.6327667 c -0.06133,-0.319482 -0.064904,-0.3650815 -0.064414,-0.815191 5.877e-4,-0.542876 0.056272,-0.9901019 0.1551767,-1.2459112 0.016047,-0.041531 0.033253,-0.062251 0.064113,-0.062071 z m 4.3598081,0.5163406 c -0.00433,0.0044 0.011397,0.035685 0.03501,0.069517 0.049599,0.070969 0.064778,0.074701 0.11579,0.028539 0.029426,-0.026638 0.082056,-0.035058 0.2531581,-0.04056 0.1187759,-0.0038 0.2231463,-0.013744 0.2319445,-0.022041 0.00889,-0.0083 -0.1289188,-0.021449 -0.305977,-0.029257 -0.1770583,-0.00782 -0.3255245,-0.010598 -0.3299373,-0.0062 z m 2.2952567,0.3059002 c 0.041963,0 0.08372,0.049589 0.070568,0.083845 -0.00958,0.025077 -0.2742144,0.206726 -0.70617,0.4847736 -0.1094761,0.07047 -0.2031109,0.1281484 -0.2080571,0.1281484 -0.039637,-2e-7 0.036538,-0.071715 0.3320845,-0.3124794 C 9.466185,7.3468801 9.4862955,7.3318028 9.5244994,7.3318028 Z m -3.959748,0.010462 c 0.016411,0.00408 0.035876,0.015454 0.065098,0.03576 0.1260697,0.087565 0.7387237,0.6193655 0.7387237,0.6412361 0,0.025604 -0.062728,-0.01306 -0.460078,-0.2836604 C 5.4687551,7.4361448 5.4298926,7.3977452 5.5185744,7.3502879 c 0.016639,-0.00889 0.029836,-0.012103 0.046202,-0.00803 z m 1.7556325,0.1624729 0.2159892,0.00545 0.2160347,0.0055 0.013676,0.2903183 c 0.00753,0.1596761 0.021882,0.6691845 0.032048,1.132242 0.01322,0.5982303 0.025529,0.8572921 0.04276,0.8950719 0.016183,0.035557 0.047273,0.059559 0.093749,0.07246 0.044629,0.012308 1.0057789,0.019375 2.6862188,0.019375 l 2.616544,1.162e-4 0.05299,0.04554 c 0.049,0.042144 0.05117,0.049963 0.02881,0.1039606 -0.01322,0.03209 -0.04755,0.07036 -0.07608,0.08504 -0.04374,0.02257 -0.93436,0.02705 -5.6646927,0.02899 -3.0870514,0.0013 -5.6315956,-0.0015 -5.654821,-0.0059 -0.093734,-0.01847 -0.1680218,-0.130563 -0.1271307,-0.1918087 0.043216,-0.06471 0.081172,-0.065759 2.4468036,-0.068335 1.2914142,-0.00139 2.4820307,-0.00798 2.6459622,-0.014587 0.2901837,-0.011625 0.2989499,-0.01322 0.3345828,-0.061087 0.034144,-0.045837 0.037905,-0.1162686 0.056322,-1.0548232 0.010941,-0.5531348 0.024343,-1.0691272 0.030019,-1.1466424 z M 3.257276,8.1230472 c 0.079218,-0.00417 0.101188,0.00386 0.1451591,0.052768 0.061834,0.068824 0.05849,0.1672343 -0.00746,0.2190936 -0.069025,0.054293 -0.1523914,0.051358 -0.2111593,-0.0074 -0.089901,-0.089901 -0.04313,-0.2583254 0.073449,-0.2644612 z m 8.504588,0.00615 c 0.07911,-0.014474 0.155517,0.034183 0.173251,0.1259945 0.01,0.051991 0.0025,0.071724 -0.04684,0.1209663 -0.06909,0.069082 -0.13293,0.074956 -0.20441,0.018758 -0.03934,-0.030937 -0.05099,-0.057183 -0.05099,-0.1147277 0,-0.057546 0.01163,-0.083788 0.05099,-0.1147277 0.02492,-0.019602 0.05161,-0.031425 0.07798,-0.03625 z m 0.449392,0.986599 c 0.02938,0.00163 0.04098,0.00661 0.04098,0.015499 0,0.012992 -0.04498,0.127141 -0.09995,0.2538739 l -0.09995,0.2304356 -1.201649,-0.00297 C 10.189792,9.6110166 9.5575952,9.6035289 9.4458215,9.5957792 9.1648144,9.5764049 9.0200224,9.5561417 9.0200224,9.5359469 c 0,-0.00934 0.01094,-0.017323 0.024183,-0.017551 0.013221,-1.914e-4 0.1112996,-0.012536 0.2177443,-0.027511 0.1064446,-0.015043 0.3285424,-0.036697 0.4935408,-0.048344 0.1650006,-0.011624 0.3435425,-0.025141 0.3967675,-0.030019 0.05322,-0.00478 0.227409,-0.018007 0.387092,-0.029222 0.54489,-0.038179 0.527062,-0.035079 0.572102,-0.09833 0.02211,-0.031112 0.05559,-0.064801 0.07435,-0.074853 0.03184,-0.017095 0.443954,-0.05892 0.877729,-0.089213 0.07116,-0.00502 0.118342,-0.00683 0.147723,-0.00524 z m -9.3792189,0.0041 c 0.00583,-0.00593 0.1049974,-0.00145 0.2203519,0.00958 0.11535,0.011169 0.2968215,0.025643 0.4032717,0.032207 0.2937635,0.018007 0.4223359,0.041234 0.4491613,0.080757 0.068455,0.1008606 0.061098,0.098489 0.4024391,0.1298077 0.4873666,0.044743 0.5257847,0.047843 0.9677283,0.078887 0.4999662,0.035125 0.7904211,0.068813 0.7699436,0.089281 -0.00843,0.00843 -0.106855,0.024753 -0.2185421,0.036127 -0.1116642,0.011397 -0.7842669,0.026143 -1.494694,0.032777 L 3.0400123,9.6214015 2.9563202,9.43942 C 2.8436845,9.1945808 2.8194712,9.1323757 2.8320258,9.1198143 Z m 4.7267691,1.4254488 c 0.8388272,-1.34e-4 2.1880348,0.04887 2.1361641,0.07761 -0.027967,0.0155 -0.4192004,0.04431 -1.0329713,0.07608 -0.4833226,0.02503 -1.3135178,0.04668 -1.3257875,0.03458 -0.00524,-0.0052 -0.1925805,-0.01504 -0.4161234,-0.02143 -0.7084154,-0.02074 -1.3838511,-0.06448 -1.3838511,-0.08944 0,-0.02813 1.2837111,-0.07722 2.0225509,-0.07734 z"
         id="path1"
         style="stroke-width:0.0193545" />
      <path
         d="m 0.92304457,12.878678 q -0.31671204,0 -0.43854559,-0.135072 -0.0841642,-0.09585 -0.0841642,-0.26797 0,-0.07408 0.0154995,-0.159029 l 0.0908085,-0.501058 q 0.0996682,-0.551178 0.71981822,-0.551178 0.2569174,0 0.389816,0.108929 0.1328917,0.106742 0.1328917,0.294113 0,0.08714 -0.026577,0.174278 -0.024364,0.08498 -0.048726,0.126366 l -0.024364,0.04358 H 1.2574855 q 0.073092,-0.08278 0.073092,-0.23528 0,-0.0806 -0.042083,-0.126365 -0.042083,-0.04794 -0.1240297,-0.04794 -0.22370245,0 -0.26577772,0.243994 l -0.07752,0.440076 q -0.0110776,0.05664 -0.0110776,0.111117 0,0.143781 0.1749704,0.143781 0.21041402,0 0.25248782,-0.233112 h 0.398679 l -0.011078,0.06318 q -0.088593,0.507606 -0.70209824,0.507606 z m 1.64341433,-0.03049 0.013289,-0.342025 H 2.2098761 L 2.1013482,12.848181 H 1.678317 l 0.5692196,-1.568559 h 0.730903 l 0.00886,1.568559 z m -0.090808,-1.187326 -0.1749704,0.553346 h 0.2901514 l 0.024364,-0.553346 z M 4.12127,11.27962 q 0.2524878,0 0.3588066,0.108928 0.079736,0.08278 0.079736,0.209129 0,0.04358 -0.00889,0.09149 l -0.030999,0.169925 q -0.026577,0.141615 -0.093022,0.228753 -0.064232,0.08714 -0.1439647,0.124178 L 4.4844911,12.84816 H 4.0371058 L 3.8510601,12.262124 H 3.7137396 l -0.090809,0.586038 H 3.197675 l 0.281292,-1.568558 z m -0.1395359,0.339857 h -0.166113 l -0.057585,0.37907 h 0.15504 q 0.1173854,0 0.1683284,-0.05445 0.050941,-0.05664 0.050941,-0.148134 0,-0.176465 -0.1506089,-0.176465 z m 1.302327,0.847459 0.4208257,-1.187316 H 6.1367785 L 5.5321204,12.848179 H 4.8233678 L 4.8055898,11.27962 h 0.4341141 l -0.00661,1.187316 z m 1.8914737,0.381243 H 6.0636941 l 0.281292,-1.568559 h 1.1118406 l -0.062021,0.339857 H 6.6816224 l -0.050943,0.294111 h 0.589145 l -0.062021,0.339857 H 6.5686703 l -0.044287,0.254898 H 7.237567 Z m 1.7962364,0 H 7.9618007 L 8.2430926,11.27962 H 8.64177 L 8.4224986,12.508321 H 9.033794 Z m 0.9656718,0 0.013221,-0.342025 H 9.5807919 L 9.4722731,12.848179 H 9.0492433 L 9.6184624,11.27962 h 0.7309006 l 0.0089,1.568559 z M 9.8466346,11.660862 9.6716733,12.214208 H 9.961825 l 0.024366,-0.553346 z m 1.1295594,0.740714 q 0,0.150321 0.219272,0.150321 0.221483,0 0.221483,-0.135072 0,-0.07189 -0.07531,-0.117636 -0.07531,-0.04574 -0.183827,-0.07625 -0.106308,-0.0305 -0.214851,-0.06973 -0.106307,-0.0414 -0.181616,-0.126344 -0.07531,-0.08714 -0.07531,-0.215693 0,-0.54682 0.71539,-0.54682 0.261346,0 0.394245,0.09803 0.135118,0.09585 0.135118,0.267969 0,0.06318 -0.01778,0.12199 -0.0155,0.05664 -0.03321,0.0806 l -0.01778,0.02614 h -0.392022 q 0.04873,-0.0501 0.04873,-0.126344 0,-0.141614 -0.18825,-0.141614 -0.236993,0 -0.236993,0.148133 0,0.07408 0.07531,0.117637 0.07531,0.04358 0.181617,0.06973 0.108519,0.02396 0.217038,0.061 0.108519,0.03704 0.183828,0.124178 0.07531,0.08494 0.07531,0.222211 0,0.276683 -0.168328,0.411743 -0.168329,0.132884 -0.518267,0.132884 -0.349936,0 -0.478395,-0.121989 -0.09523,-0.09149 -0.09523,-0.252709 0,-0.061 0.01322,-0.132886 l 0.0066,-0.03485 h 0.398676 l -0.0043,0.02614 q -0.0043,0.02188 -0.0043,0.0392 z m 2.124034,0.446603 h -1.111839 l 0.281292,-1.568559 h 1.111839 l -0.06202,0.339857 h -0.713184 l -0.05094,0.294111 h 0.589143 l -0.06202,0.339857 h -0.589145 l -0.04428,0.254898 h 0.713184 z m 1.17829,-1.568559 q 0.252486,0 0.358805,0.108928 0.07973,0.08278 0.07973,0.209129 0,0.04358 -0.0089,0.09149 l -0.03102,0.169925 q -0.02658,0.141615 -0.09302,0.228753 -0.06423,0.08714 -0.143963,0.124178 l 0.201561,0.636137 h -0.447375 l -0.186038,-0.586038 h -0.137331 l -0.09081,0.586038 h -0.425255 l 0.281292,-1.568544 z m -0.139541,0.339857 H 13.97286 l -0.0576,0.37907 h 0.155041 q 0.117384,0 0.168328,-0.05445 0.05094,-0.05664 0.05094,-0.148134 0,-0.176465 -0.150596,-0.176465 z"
         stroke-width="0.379643"
         aria-label="CARVE LASER"
         id="path2" />
    </g>
  </g>
</svg>
